# Blender 4.4.0
# www.blender.org
o Cylinder
v -0.000000 0.200000 -0.500000
v -0.000000 3.200000 -0.269060
v 0.433013 0.200000 -0.250000
v 0.233013 3.200000 -0.134530
v 0.433013 0.200000 0.250000
v 0.233013 3.200000 0.134530
v -0.000000 0.200000 0.500000
v -0.000000 3.200000 0.269060
v -0.433013 0.200000 0.250000
v -0.233013 3.200000 0.134530
v -0.433013 0.200000 -0.250000
v -0.233013 3.200000 -0.134530
v 0.000000 3.200000 0.000000
v 0.433013 3.000000 -0.250000
v -0.000000 3.000000 -0.500000
v 0.433013 3.000000 0.250000
v -0.000000 3.000000 0.500000
v -0.433013 3.000000 0.250000
v -0.433013 3.000000 -0.250000
v 1.000000 0.200000 -1.000000
v 1.000000 0.000000 -1.000000
v 1.000000 0.200000 1.000000
v 1.000000 0.000000 1.000000
v -1.000000 0.200000 -1.000000
v -1.000000 0.000000 -1.000000
v -1.000000 0.200000 1.000000
v -1.000000 0.000000 1.000000
vn 0.5000 -0.0000 -0.8660
vn 1.0000 -0.0000 -0.0000
vn 0.5000 -0.0000 0.8660
vn -0.5000 -0.0000 0.8660
vn -1.0000 -0.0000 -0.0000
vn -0.5000 -0.0000 -0.8660
vn -0.0000 1.0000 -0.0000
vn 0.3536 0.7071 -0.6124
vn 0.7071 0.7071 -0.0000
vn 0.3536 0.7071 0.6124
vn -0.3536 0.7071 0.6124
vn -0.7071 0.7071 -0.0000
vn -0.3536 0.7071 -0.6124
vn -0.0000 -0.0000 1.0000
vn -0.0000 -1.0000 -0.0000
vn -0.0000 -0.0000 -1.0000
vt 0.807013 0.000000
vt 0.807013 0.500000
vt 0.717727 0.500000
vt 0.717727 0.000000
vt 0.628441 0.500000
vt 0.628441 0.000000
vt 0.896298 0.000000
vt 0.896298 0.500000
vt 0.807013 0.500000
vt 0.807013 0.000000
vt 0.717727 0.500000
vt 0.628441 0.500000
vt 0.628441 0.000000
vt 0.896298 0.000000
vt 0.803686 0.280996
vt 0.750000 0.311991
vt 0.750000 0.250000
vt 0.696314 0.280996
vt 0.696314 0.219004
vt 0.750000 0.188009
vt 0.803686 0.219004
vt 0.750000 0.189574
vt 0.805923 0.157287
vt 0.853923 0.185000
vt 0.750000 0.245000
vt 0.805923 0.092713
vt 0.853923 0.065000
vt 0.750000 0.060426
vt 0.750000 0.005000
vt 0.694077 0.092713
vt 0.646077 0.065000
vt 0.694077 0.157287
vt 0.646077 0.185000
vt 1.000000 0.000000
vt 1.000000 0.500000
vt 0.500000 0.500000
vt 0.500000 0.000000
vt 0.999609 0.000391
vt 0.999609 0.050391
vt 0.499609 0.050391
vt 0.499609 0.000391
vt 0.550000 0.501691
vt 0.500000 0.501691
vt 0.500000 0.001691
vt 0.550000 0.001691
vt 0.500000 0.500000
vt 0.500000 1.000000
vt 0.000000 1.000000
vt 0.000000 0.500000
vt 1.000293 0.449609
vt 1.000293 0.499609
vt 0.500293 0.499609
vt 0.500293 0.449609
vt 0.998828 0.449664
vt 0.998828 0.499664
vt 0.498828 0.499664
vt 0.498828 0.449664
s 0
f 1/1/1 15/2/1 14/3/1 3/4/1
f 3/4/2 14/3/2 16/5/2 5/6/2
f 5/7/3 16/8/3 17/9/3 7/10/3
f 7/10/4 17/9/4 18/11/4 9/4/4
f 9/4/5 18/11/5 19/12/5 11/13/5
f 11/14/6 19/8/6 15/2/6 1/1/6
f 4/15/7 2/16/7 13/17/7
f 2/16/7 12/18/7 13/17/7
f 12/18/7 10/19/7 13/17/7
f 10/19/7 8/20/7 13/17/7
f 8/20/7 6/21/7 13/17/7
f 6/21/7 4/15/7 13/17/7
f 2/22/8 4/23/8 14/24/8 15/25/8
f 4/23/9 6/26/9 16/27/9 14/24/9
f 6/26/10 8/28/10 17/29/10 16/27/10
f 8/28/11 10/30/11 18/31/11 17/29/11
f 10/30/12 12/32/12 19/33/12 18/31/12
f 12/32/13 2/22/13 15/25/13 19/33/13
f 20/34/7 24/35/7 26/36/7 22/37/7
f 23/38/14 22/39/14 26/40/14 27/41/14
f 27/42/5 26/43/5 24/44/5 25/45/5
f 25/46/15 21/47/15 23/48/15 27/49/15
f 21/50/2 20/51/2 22/52/2 23/53/2
f 25/54/16 24/55/16 20/56/16 21/57/16
