# Blender 4.2.2 LTS
# www.blender.org
mtllib wellShrineEmpty.mtl
o Cylinder
v -0.000000 0.000000 -0.500000
v -0.000000 2.000000 -0.350000
v 0.433013 0.000000 -0.250000
v 0.303109 2.000000 -0.175000
v 0.433013 0.000000 0.250000
v 0.303109 2.000000 0.175000
v -0.000000 0.000000 0.500000
v -0.000000 2.000000 0.350000
v -0.433013 0.000000 0.250000
v -0.303109 2.000000 0.175000
v -0.433013 0.000000 -0.250000
v -0.303109 2.000000 -0.175000
v 1.043011 2.682923 -0.602183
v -0.000000 2.682923 -1.204366
v 1.043011 2.682923 0.602183
v -0.000000 2.682923 1.204366
v -1.043011 2.682923 0.602183
v -1.043011 2.682923 -0.602183
v 1.252387 2.682923 -0.723066
v -0.000000 2.682923 -1.446132
v 1.252387 2.682923 0.723066
v -0.000000 2.682923 1.446132
v -1.252387 2.682923 0.723066
v -1.252387 2.682923 -0.723066
v 0.417204 2.414615 -0.240873
v -0.000000 2.414615 -0.481746
v 0.417204 2.414615 0.240873
v -0.000000 2.414615 0.481746
v -0.417204 2.414615 0.240873
v -0.417204 2.414615 -0.240873
vn 0.4989 0.0648 -0.8642
vn 0.9979 0.0648 -0.0000
vn 0.4989 0.0648 0.8642
vn -0.4989 0.0648 0.8642
vn -0.2920 -0.8118 0.5058
vn -0.9979 0.0648 -0.0000
vn -0.4989 0.0648 -0.8642
vn -0.0000 -1.0000 -0.0000
vn 0.3940 0.9191 -0.0000
vn 0.5840 -0.8118 -0.0000
vn -0.5840 -0.8118 -0.0000
vn 0.2920 -0.8118 -0.5058
vn 0.2920 -0.8118 0.5058
vn -0.2920 -0.8118 -0.5058
vn -0.0000 1.0000 -0.0000
vn -0.1970 0.9191 -0.3413
vn -0.1970 0.9191 0.3413
vn 0.1970 0.9191 0.3413
vn 0.1970 0.9191 -0.3413
vn -0.3940 0.9191 -0.0000
vt 0.885733 0.083724
vt 0.552507 0.134672
vt 0.552507 0.076065
vt 0.885733 -0.000000
vt 0.885733 0.507099
vt 0.552506 0.431034
vt 0.552506 0.372427
vt 0.885733 0.423374
vt 0.552506 0.313155
vt 0.885733 0.338700
vt 0.552507 0.253549
vt 0.885733 0.253549
vt 0.307375 0.212921
vt 0.248716 0.223734
vt 0.120734 0.044676
vt 0.363102 -0.000000
vt 0.552507 0.193944
vt 0.885733 0.168399
vt 0.551795 0.689630
vt 0.404207 0.689630
vt 0.478001 0.561815
vt 0.234241 0.987206
vt 0.043681 0.910956
vt 0.143957 0.826097
vt 0.220181 0.856597
vt 0.219495 0.275733
vt 0.240763 0.331460
vt 0.087873 0.489781
vt -0.000000 0.259528
vt 0.353216 0.251084
vt 0.552506 0.157682
vt 0.307375 0.348894
vt 0.353215 0.310731
vt 0.552506 0.404133
vt 0.363102 0.561815
vt 0.765939 0.958798
vt 0.943689 0.856174
vt 0.979371 0.876775
vt 0.765939 1.000000
vt 0.943689 0.650925
vt 0.979371 0.630324
vt 0.765939 0.548301
vt 0.765939 0.507099
vt 0.588188 0.650925
vt 0.552506 0.630324
vt 0.588188 0.856174
vt 0.552506 0.876775
vt 0.494617 0.825483
vt 0.475307 0.836632
vt 0.455997 0.825483
vt -0.000000 0.710409
vt 0.141586 0.561815
vt 0.183120 0.686440
vt 0.126485 0.745878
vt 0.404207 0.666899
vt 0.404207 0.872148
vt 0.288168 0.810573
vt 0.288168 0.728474
vt 0.344008 0.595763
vt 0.264088 0.700019
vt 0.551795 0.604420
vt 0.478001 0.732235
vt 0.404207 0.604420
vt 0.455997 0.803186
vt 0.475307 0.792037
vt 0.494617 0.803186
s 0
usemtl Material.001
f 1/1/1 2/2/1 4/3/1 3/4/1
f 3/5/2 4/6/2 6/7/2 5/8/2
f 5/8/3 6/7/3 8/9/3 7/10/3
f 7/10/4 8/9/4 10/11/4 9/12/4
f 10/13/5 8/14/5 22/15/5 23/16/5
f 9/12/6 10/11/6 12/17/6 11/18/6
f 11/18/7 12/17/7 2/2/7 1/1/7
f 3/19/8 7/20/8 11/21/8
f 18/22/9 17/23/9 29/24/9 30/25/9
f 6/26/10 4/27/10 19/28/10 21/29/10
f 12/30/11 10/13/11 23/16/11 24/31/11
f 4/32/12 2/33/12 20/34/12 19/35/12
f 8/14/13 6/26/13 21/29/13 22/15/13
f 2/33/14 12/30/14 24/31/14 20/34/14
f 14/36/15 13/37/15 19/38/15 20/39/15
f 13/37/15 15/40/15 21/41/15 19/38/15
f 15/40/15 16/42/15 22/43/15 21/41/15
f 16/42/15 17/44/15 23/45/15 22/43/15
f 17/44/15 18/46/15 24/47/15 23/45/15
f 18/46/15 14/36/15 20/39/15 24/47/15
f 29/48/15 28/49/15 27/50/15
f 16/51/16 15/52/16 27/53/16 28/54/16
f 13/55/17 14/56/17 26/57/17 25/58/17
f 14/56/18 18/22/18 30/25/18 26/57/18
f 17/23/19 16/51/19 28/54/19 29/24/19
f 15/52/20 13/59/20 25/60/20 27/53/20
f 11/21/8 1/61/8 3/19/8
f 3/19/8 5/62/8 7/20/8
f 7/20/8 9/63/8 11/21/8
f 27/50/15 25/64/15 29/48/15
f 25/64/15 26/65/15 29/48/15
f 26/65/15 30/66/15 29/48/15
